<svg id="Layer_5" enable-background="new 0 0 54 64" viewBox="0 0 64 60" xmlns="http://www.w3.org/2000/svg">
<g><path d="m60 12c-.366 0-.705.106-1 .277v2.723 2 10.723c.295.171.634.277 1 .277 1.105 0 2-.895 2-2v-12c0-1.105-.895-2-2-2z"/>
<path d="m23 27h-4v8h12v-10h-6c0 1.103-.897 2-2 2z"/>
<path d="m7 11v28h28.001l-.001-28zm8 24h-6v-2h6zm0-4h-6v-2h6zm18 4c0 1.103-.897 2-2 2h-12c-1.103 0-2-.897-2-2v-8h-6c-1.103 0-2-.897-2-2v-10c0-1.103.897-2 2-2h12c1.103 0 2 .897 2 2v8h6c1.103 0 2 .897 2 2zm0-16h-6v-2h6zm0-4h-6v-2h6z"/>
<path d="m7 49v2h26v2h-10v2h13.026c-.635-.838-1.026-1.87-1.026-3s.391-2.162 1.026-3z"/><path d="m11 15h12.001v10h-12.001z"/><path d="m15 59.382 3-1.5 3 1.5v-6.382h-6z"/>
<path d="m5 49.184c-1.161.414-2 1.514-2 2.816 0 1.654 1.346 3 3 3h7v-2h-8z"/>
<path d="m36 3h-30c-1.654 0-3 1.346-3 3v42.002c.836-.629 1.875-1.002 3-1.002h33v-41c0-1.654-1.346-3-3-3zm-16 2h6v2h-6zm-4 0h2v2h-2zm9 40h-8v-2h8zm12-6c0 1.103-.897 2-2 2h-28c-1.103 0-2-.897-2-2v-28c0-1.103.897-2 2-2h28c1.103 0 2 .897 2 2z"/><path d="m55 4c0-.552-.449-1-1-1h-2c-.551 0-1 .448-1 1v3h4z"/><path d="m56 9h-6c-.551 0-1 .448-1 1v5h8v-5c0-.552-.449-1-1-1z"/><path d="m52 61h.586l1.414-1.414v-2.586h-2z"/><path d="m49 17h8v32h-8z"/><path d="m51.618 55h2.764l2-4h-6.764z"/></g></svg>